# xmcd
#
# Track frame offsets:
#  150
#  15452
#  29660
#  40355
#  55744
#  71791
#  86920
#  101313
#  115572
#  131025
#
# Disc length: 1932 seconds
#
# Revision: 0
# Processed by: cddbd v1.5.2PL0 Copyright (c) Steve Scherf et al.
# Submitted via: AltoMP3_Maker 3.0
#
DISCID=83078a0a
DTITLE=Διάφοροι - Το ΒΗΜΑ - Λαϊκό τραγούδι 1959
DYEAR=1900
DGENRE=
TTITLE0=Χωρίς τον ξενοδόχο λογαριάζαμε
TTITLE1=Σαν συννεφιασμένη μέρα
TTITLE2=Αν κερδίσω το ΠΡΟ-ΠΟ
TTITLE3=Γκρεμίζουν την Αθήνα την παλιά
TTITLE4=Η ταμάρα
TTITLE5=Μάγισσα Θεσσαλονίκη (νυφούλα του Θερμαϊκού)
TTITLE6=Κρυφό μαράζι
TTITLE7=Μαυρομάτα-μαυρομάτα
TTITLE8=Θα πεθάνω γλυκιά μου αγάπη
TTITLE9=Οι νέοι μάγκες
EXTD=
EXTT0=
EXTT1=
EXTT2=
EXTT3=
EXTT4=
EXTT5=
EXTT6=
EXTT7=
EXTT8=
EXTT9=
PLAYORDER=
